<mxfile host="Electron" modified="2024-12-23T06:04:02.626Z" agent="Mozilla/5.0 (Windows NT 10.0; Win64; x64) AppleWebKit/537.36 (KHTML, like Gecko) draw.io/24.6.1 Chrome/124.0.6367.207 Electron/30.0.6 Safari/537.36" etag="sbAMuKM5KcWFMuOLAaOI" version="24.6.1" type="device">
  <diagram name="페이지-1" id="m4bN5Tgj2HW0a0svHskb">
    <mxGraphModel dx="1221" dy="831" grid="1" gridSize="10" guides="1" tooltips="1" connect="1" arrows="1" fold="1" page="1" pageScale="1" pageWidth="1654" pageHeight="1169" math="0" shadow="0">
      <root>
        <mxCell id="0" />
        <mxCell id="1" parent="0" />
        <mxCell id="IYjbuY1hUiU67T46vxpi-5" style="edgeStyle=orthogonalEdgeStyle;rounded=0;orthogonalLoop=1;jettySize=auto;html=1;exitX=0;exitY=0.5;exitDx=0;exitDy=0;endArrow=none;endFill=0;strokeWidth=2;" parent="1" source="IYjbuY1hUiU67T46vxpi-1" edge="1">
          <mxGeometry relative="1" as="geometry">
            <mxPoint x="640" y="429.75862068965523" as="targetPoint" />
          </mxGeometry>
        </mxCell>
        <mxCell id="IYjbuY1hUiU67T46vxpi-6" style="edgeStyle=orthogonalEdgeStyle;rounded=0;orthogonalLoop=1;jettySize=auto;html=1;exitX=0.5;exitY=0;exitDx=0;exitDy=0;endArrow=none;endFill=0;strokeWidth=2;" parent="1" source="IYjbuY1hUiU67T46vxpi-1" edge="1">
          <mxGeometry relative="1" as="geometry">
            <mxPoint x="1010" y="410" as="targetPoint" />
          </mxGeometry>
        </mxCell>
        <mxCell id="IYjbuY1hUiU67T46vxpi-7" style="edgeStyle=orthogonalEdgeStyle;rounded=0;orthogonalLoop=1;jettySize=auto;html=1;exitX=0.5;exitY=1;exitDx=0;exitDy=0;endArrow=none;endFill=0;strokeWidth=2;" parent="1" source="IYjbuY1hUiU67T46vxpi-1" edge="1">
          <mxGeometry relative="1" as="geometry">
            <mxPoint x="1010" y="450" as="targetPoint" />
          </mxGeometry>
        </mxCell>
        <mxCell id="IYjbuY1hUiU67T46vxpi-1" value="" style="triangle;whiteSpace=wrap;html=1;strokeWidth=2;" parent="1" vertex="1">
          <mxGeometry x="710" y="390" width="60" height="80" as="geometry" />
        </mxCell>
        <mxCell id="IYjbuY1hUiU67T46vxpi-4" value="DSLVDS1047" style="text;html=1;align=center;verticalAlign=middle;resizable=0;points=[];autosize=1;strokeColor=none;fillColor=none;fontStyle=1" parent="1" vertex="1">
          <mxGeometry x="690" y="348" width="100" height="30" as="geometry" />
        </mxCell>
        <mxCell id="IYjbuY1hUiU67T46vxpi-9" value="&lt;h1 style=&quot;margin: 0px; padding: 0px; border: 0px; outline: none; box-sizing: border-box; word-break: normal; color: rgb(34, 34, 34); font-family: ArialMT, &amp;quot;Microsoft YaHei&amp;quot;, PingFangSC, PingFangSC-Semibold, notosans; text-align: start; text-wrap: wrap; background-color: rgb(255, 255, 255);&quot; data-v-8943e312=&quot;&quot; class=&quot;text-16 text-222222 font-bold&quot;&gt;&lt;font style=&quot;font-size: 12px;&quot;&gt;ADN4624BRNZ&lt;/font&gt;&lt;/h1&gt;" style="text;html=1;align=center;verticalAlign=middle;resizable=0;points=[];autosize=1;strokeColor=none;fillColor=none;fontStyle=1" parent="1" vertex="1">
          <mxGeometry x="980" y="338" width="120" height="40" as="geometry" />
        </mxCell>
        <mxCell id="IYjbuY1hUiU67T46vxpi-12" value="" style="group" parent="1" vertex="1" connectable="0">
          <mxGeometry x="1010" y="391.5" width="63.25" height="77" as="geometry" />
        </mxCell>
        <mxCell id="IYjbuY1hUiU67T46vxpi-11" value="" style="triangle;whiteSpace=wrap;html=1;strokeWidth=2;" parent="IYjbuY1hUiU67T46vxpi-12" vertex="1">
          <mxGeometry x="38" y="21" width="25.25" height="35" as="geometry" />
        </mxCell>
        <mxCell id="IYjbuY1hUiU67T46vxpi-10" value="" style="shape=trapezoid;perimeter=trapezoidPerimeter;whiteSpace=wrap;html=1;fixedSize=1;size=20;rotation=90;strokeWidth=2;" parent="IYjbuY1hUiU67T46vxpi-12" vertex="1">
          <mxGeometry x="-22" y="22" width="77" height="33" as="geometry" />
        </mxCell>
        <mxCell id="IYjbuY1hUiU67T46vxpi-17" style="edgeStyle=orthogonalEdgeStyle;rounded=0;orthogonalLoop=1;jettySize=auto;html=1;exitX=1;exitY=0.5;exitDx=0;exitDy=0;strokeWidth=2;endArrow=none;endFill=0;" parent="1" source="IYjbuY1hUiU67T46vxpi-13" edge="1">
          <mxGeometry relative="1" as="geometry">
            <mxPoint x="1280" y="430.3333333333335" as="targetPoint" />
          </mxGeometry>
        </mxCell>
        <mxCell id="IYjbuY1hUiU67T46vxpi-13" value="" style="triangle;whiteSpace=wrap;html=1;strokeWidth=2;" parent="1" vertex="1">
          <mxGeometry x="1110" y="390" width="60" height="80" as="geometry" />
        </mxCell>
        <mxCell id="IYjbuY1hUiU67T46vxpi-14" style="edgeStyle=orthogonalEdgeStyle;rounded=0;orthogonalLoop=1;jettySize=auto;html=1;exitX=0;exitY=0;exitDx=0;exitDy=0;entryX=0;entryY=0.25;entryDx=0;entryDy=0;strokeWidth=2;endArrow=none;endFill=0;" parent="1" source="IYjbuY1hUiU67T46vxpi-10" target="IYjbuY1hUiU67T46vxpi-13" edge="1">
          <mxGeometry relative="1" as="geometry" />
        </mxCell>
        <mxCell id="IYjbuY1hUiU67T46vxpi-15" style="edgeStyle=orthogonalEdgeStyle;rounded=0;orthogonalLoop=1;jettySize=auto;html=1;exitX=1;exitY=0;exitDx=0;exitDy=0;entryX=0;entryY=0.75;entryDx=0;entryDy=0;strokeWidth=2;endArrow=none;endFill=0;" parent="1" source="IYjbuY1hUiU67T46vxpi-10" target="IYjbuY1hUiU67T46vxpi-13" edge="1">
          <mxGeometry relative="1" as="geometry" />
        </mxCell>
        <mxCell id="IYjbuY1hUiU67T46vxpi-16" value="&lt;h1 style=&quot;margin: 0px; padding: 0px; border: 0px; outline: none; box-sizing: border-box; word-break: normal; color: rgb(34, 34, 34); font-family: ArialMT, &amp;quot;Microsoft YaHei&amp;quot;, PingFangSC, PingFangSC-Semibold, notosans; text-align: start; text-wrap: wrap; background-color: rgb(255, 255, 255);&quot; data-v-8943e312=&quot;&quot; class=&quot;text-16 text-222222 font-bold&quot;&gt;&lt;font style=&quot;font-size: 12px;&quot;&gt;DSLVDS1048&lt;/font&gt;&lt;/h1&gt;" style="text;html=1;align=center;verticalAlign=middle;resizable=0;points=[];autosize=1;strokeColor=none;fillColor=none;fontStyle=1" parent="1" vertex="1">
          <mxGeometry x="1090" y="338" width="100" height="40" as="geometry" />
        </mxCell>
        <mxCell id="IYjbuY1hUiU67T46vxpi-25" value="" style="group" parent="1" vertex="1" connectable="0">
          <mxGeometry x="1090" y="200" width="100" height="125" as="geometry" />
        </mxCell>
        <mxCell id="IYjbuY1hUiU67T46vxpi-20" value="" style="shape=card;whiteSpace=wrap;html=1;size=120;strokeWidth=2;" parent="IYjbuY1hUiU67T46vxpi-25" vertex="1">
          <mxGeometry x="15" y="45" width="80" height="80" as="geometry" />
        </mxCell>
        <mxCell id="IYjbuY1hUiU67T46vxpi-21" value="" style="shape=card;whiteSpace=wrap;html=1;size=120;strokeWidth=2;rotation=-180;" parent="IYjbuY1hUiU67T46vxpi-25" vertex="1">
          <mxGeometry x="10" y="40" width="80" height="80" as="geometry" />
        </mxCell>
        <mxCell id="IYjbuY1hUiU67T46vxpi-22" value="&lt;h1 style=&quot;margin: 0px; padding: 0px; border: 0px; outline: none; box-sizing: border-box; word-break: normal; color: rgb(34, 34, 34); font-family: ArialMT, &amp;quot;Microsoft YaHei&amp;quot;, PingFangSC, PingFangSC-Semibold, notosans; text-align: start; text-wrap: wrap; background-color: rgb(255, 255, 255);&quot; data-v-8943e312=&quot;&quot; class=&quot;text-16 text-222222 font-bold&quot;&gt;&lt;font style=&quot;font-size: 12px;&quot;&gt;NME0505DC&lt;/font&gt;&lt;/h1&gt;" style="text;html=1;align=center;verticalAlign=middle;resizable=0;points=[];autosize=1;strokeColor=none;fillColor=none;fontStyle=1" parent="IYjbuY1hUiU67T46vxpi-25" vertex="1">
          <mxGeometry width="100" height="40" as="geometry" />
        </mxCell>
        <mxCell id="IYjbuY1hUiU67T46vxpi-23" value="&lt;h1 style=&quot;margin: 0px; padding: 0px; border: 0px; outline: none; box-sizing: border-box; word-break: normal; color: rgb(34, 34, 34); font-family: ArialMT, &amp;quot;Microsoft YaHei&amp;quot;, PingFangSC, PingFangSC-Semibold, notosans; text-align: start; text-wrap: wrap; background-color: rgb(255, 255, 255);&quot; data-v-8943e312=&quot;&quot; class=&quot;text-16 text-222222 font-bold&quot;&gt;&lt;font style=&quot;font-size: 12px;&quot;&gt;DC&lt;/font&gt;&lt;/h1&gt;" style="text;html=1;align=center;verticalAlign=middle;resizable=0;points=[];autosize=1;strokeColor=none;fillColor=none;fontStyle=1" parent="IYjbuY1hUiU67T46vxpi-25" vertex="1">
          <mxGeometry x="15" y="40" width="40" height="40" as="geometry" />
        </mxCell>
        <mxCell id="IYjbuY1hUiU67T46vxpi-24" value="&lt;h1 style=&quot;margin: 0px; padding: 0px; border: 0px; outline: none; box-sizing: border-box; word-break: normal; color: rgb(34, 34, 34); font-family: ArialMT, &amp;quot;Microsoft YaHei&amp;quot;, PingFangSC, PingFangSC-Semibold, notosans; text-align: start; text-wrap: wrap; background-color: rgb(255, 255, 255);&quot; data-v-8943e312=&quot;&quot; class=&quot;text-16 text-222222 font-bold&quot;&gt;&lt;font style=&quot;font-size: 12px;&quot;&gt;DC&lt;/font&gt;&lt;/h1&gt;" style="text;html=1;align=center;verticalAlign=middle;resizable=0;points=[];autosize=1;strokeColor=none;fillColor=none;fontStyle=1" parent="IYjbuY1hUiU67T46vxpi-25" vertex="1">
          <mxGeometry x="50" y="75" width="40" height="40" as="geometry" />
        </mxCell>
        <mxCell id="IYjbuY1hUiU67T46vxpi-27" value="&lt;b&gt;TPS7A84&lt;/b&gt;" style="rounded=0;whiteSpace=wrap;html=1;strokeWidth=2;" parent="1" vertex="1">
          <mxGeometry x="980" y="245" width="60" height="80" as="geometry" />
        </mxCell>
        <mxCell id="IYjbuY1hUiU67T46vxpi-28" value="" style="pointerEvents=1;verticalLabelPosition=bottom;shadow=0;dashed=0;align=center;html=1;verticalAlign=top;shape=mxgraph.electrical.resistors.resistor_2;strokeWidth=2;rotation=90;" parent="1" vertex="1">
          <mxGeometry x="977.5" y="427.5" width="40" height="5" as="geometry" />
        </mxCell>
        <mxCell id="IYjbuY1hUiU67T46vxpi-29" value="" style="pointerEvents=1;verticalLabelPosition=bottom;shadow=0;dashed=0;align=center;html=1;verticalAlign=top;shape=mxgraph.electrical.resistors.resistor_2;strokeWidth=2;rotation=90;" parent="1" vertex="1">
          <mxGeometry x="1080" y="427.5" width="40" height="5" as="geometry" />
        </mxCell>
        <mxCell id="IYjbuY1hUiU67T46vxpi-30" value="100&lt;span style=&quot;color: rgb(31, 31, 31); font-family: Arial, &amp;quot;Apple SD Gothic Neo&amp;quot;, sans-serif; text-align: start; text-wrap: wrap; background-color: rgb(255, 255, 255);&quot;&gt;&lt;font style=&quot;font-size: 12px;&quot;&gt;Ω&lt;/font&gt;&lt;/span&gt;" style="text;html=1;align=center;verticalAlign=middle;resizable=0;points=[];autosize=1;strokeColor=none;fillColor=none;fontStyle=1" parent="1" vertex="1">
          <mxGeometry x="972.5" y="470" width="50" height="30" as="geometry" />
        </mxCell>
        <mxCell id="IYjbuY1hUiU67T46vxpi-31" value="100&lt;span style=&quot;color: rgb(31, 31, 31); font-family: Arial, &amp;quot;Apple SD Gothic Neo&amp;quot;, sans-serif; text-align: start; text-wrap: wrap; background-color: rgb(255, 255, 255);&quot;&gt;&lt;font style=&quot;font-size: 12px;&quot;&gt;Ω&lt;/font&gt;&lt;/span&gt;" style="text;html=1;align=center;verticalAlign=middle;resizable=0;points=[];autosize=1;strokeColor=none;fillColor=none;fontStyle=1" parent="1" vertex="1">
          <mxGeometry x="1075" y="470" width="50" height="30" as="geometry" />
        </mxCell>
        <mxCell id="IYjbuY1hUiU67T46vxpi-32" value="&lt;b&gt;DAC8734&lt;/b&gt;" style="rounded=0;whiteSpace=wrap;html=1;strokeWidth=2;" parent="1" vertex="1">
          <mxGeometry x="1280" y="391.5" width="60" height="80" as="geometry" />
        </mxCell>
      </root>
    </mxGraphModel>
  </diagram>
</mxfile>
